<mxfile host="65bd71144e">
    <diagram id="Jbpbtb-ZGOgZmTvVzhTU" name="image">
        <mxGraphModel dx="791" dy="-163" grid="1" gridSize="10" guides="1" tooltips="1" connect="1" arrows="1" fold="1" page="1" pageScale="1" pageWidth="827" pageHeight="1169" math="0" shadow="0">
            <root>
                <mxCell id="0"/>
                <mxCell id="1" parent="0"/>
                <mxCell id="_GZTEUs9rSTjF5WIu7Gr-80" value="" style="rounded=0;whiteSpace=wrap;html=1;strokeWidth=2;strokeColor=#CCCCCC;dashed=1;snapToPoint=1;" parent="1" vertex="1">
                    <mxGeometry x="100" y="1580" width="670" height="320" as="geometry"/>
                </mxCell>
                <mxCell id="_GZTEUs9rSTjF5WIu7Gr-110" value="" style="rounded=0;whiteSpace=wrap;html=1;strokeColor=none;fillColor=#F0F0F0;fontColor=#333333;dashed=1;strokeWidth=0;dashPattern=1 2;snapToPoint=1;" parent="1" vertex="1">
                    <mxGeometry x="270" y="1750" width="280" height="130" as="geometry"/>
                </mxCell>
                <mxCell id="_GZTEUs9rSTjF5WIu7Gr-108" value="" style="rounded=0;whiteSpace=wrap;html=1;strokeColor=none;fillColor=#F0F0F0;fontColor=#333333;dashed=1;strokeWidth=0;dashPattern=1 2;snapToPoint=1;" parent="1" vertex="1">
                    <mxGeometry x="550" y="1670" width="200" height="60" as="geometry"/>
                </mxCell>
                <mxCell id="_GZTEUs9rSTjF5WIu7Gr-107" value="" style="rounded=0;whiteSpace=wrap;html=1;strokeColor=none;fillColor=#F0F0F0;fontColor=#333333;dashed=1;strokeWidth=0;dashPattern=1 2;snapToPoint=1;" parent="1" vertex="1">
                    <mxGeometry x="550" y="1600" width="200" height="60" as="geometry"/>
                </mxCell>
                <mxCell id="_GZTEUs9rSTjF5WIu7Gr-100" value="" style="rounded=0;whiteSpace=wrap;html=1;strokeColor=none;fillColor=#F0F0F0;fontColor=#333333;dashed=1;strokeWidth=0;dashPattern=1 2;snapToPoint=1;" parent="1" vertex="1">
                    <mxGeometry x="270" y="1600" width="280" height="130" as="geometry"/>
                </mxCell>
                <mxCell id="_GZTEUs9rSTjF5WIu7Gr-69" value="TCP&lt;br&gt;UDP" style="rounded=0;whiteSpace=wrap;html=1;fontSize=14;strokeColor=#666666;fontColor=#333333;fillColor=#f5f5f5;snapToPoint=1;" parent="1" vertex="1">
                    <mxGeometry x="120" y="1600" width="60" height="280" as="geometry"/>
                </mxCell>
                <mxCell id="_GZTEUs9rSTjF5WIu7Gr-70" value="Virtual&lt;br&gt;Host&lt;br&gt;Mux." style="rounded=0;whiteSpace=wrap;html=1;fontSize=14;strokeColor=#d6b656;fillColor=#fff2cc;snapToPoint=1;" parent="1" vertex="1">
                    <mxGeometry x="200" y="1600" width="60" height="280" as="geometry"/>
                </mxCell>
                <mxCell id="_GZTEUs9rSTjF5WIu7Gr-71" value="Mux." style="rounded=0;whiteSpace=wrap;html=1;fontSize=14;strokeColor=#b85450;fillColor=#f8cecc;snapToPoint=1;" parent="1" vertex="1">
                    <mxGeometry x="280" y="1610" width="80" height="110" as="geometry"/>
                </mxCell>
                <mxCell id="_GZTEUs9rSTjF5WIu7Gr-72" value="Mux." style="rounded=0;whiteSpace=wrap;html=1;fontSize=14;strokeColor=#b85450;fillColor=#f8cecc;snapToPoint=1;" parent="1" vertex="1">
                    <mxGeometry x="280" y="1760" width="80" height="110" as="geometry"/>
                </mxCell>
                <mxCell id="_GZTEUs9rSTjF5WIu7Gr-73" value="" style="rounded=0;whiteSpace=wrap;html=1;fillColor=#d5e8d4;strokeColor=#82b366;snapToPoint=1;" parent="1" vertex="1">
                    <mxGeometry x="380" y="1610" width="30" height="110" as="geometry"/>
                </mxCell>
                <mxCell id="_GZTEUs9rSTjF5WIu7Gr-74" value="" style="rounded=0;whiteSpace=wrap;html=1;fillColor=#d5e8d4;strokeColor=#82b366;snapToPoint=1;" parent="1" vertex="1">
                    <mxGeometry x="430" y="1610" width="30" height="110" as="geometry"/>
                </mxCell>
                <mxCell id="_GZTEUs9rSTjF5WIu7Gr-75" value="" style="rounded=0;whiteSpace=wrap;html=1;fillColor=#d5e8d4;strokeColor=#82b366;snapToPoint=1;" parent="1" vertex="1">
                    <mxGeometry x="510" y="1610" width="30" height="110" as="geometry"/>
                </mxCell>
                <mxCell id="_GZTEUs9rSTjF5WIu7Gr-78" value="" style="rounded=0;whiteSpace=wrap;html=1;fillColor=#d5e8d4;strokeColor=#82b366;snapToPoint=1;" parent="1" vertex="1">
                    <mxGeometry x="560" y="1610" width="30" height="40" as="geometry"/>
                </mxCell>
                <mxCell id="_GZTEUs9rSTjF5WIu7Gr-81" value="" style="endArrow=none;dashed=1;html=1;strokeWidth=5;orthogonalLoop=0;dashPattern=1 2;curved=1;fillColor=#d5e8d4;strokeColor=#82b366;snapToPoint=1;" parent="1" edge="1">
                    <mxGeometry width="50" height="50" relative="1" as="geometry">
                        <mxPoint x="470" y="1664.76" as="sourcePoint"/>
                        <mxPoint x="510" y="1664.76" as="targetPoint"/>
                    </mxGeometry>
                </mxCell>
                <mxCell id="_GZTEUs9rSTjF5WIu7Gr-86" value="Handler" style="rounded=0;whiteSpace=wrap;html=1;fillColor=#dae8fc;strokeColor=#6c8ebf;snapToPoint=1;fontSize=14;" parent="1" vertex="1">
                    <mxGeometry x="680" y="1610" width="60" height="40" as="geometry"/>
                </mxCell>
                <mxCell id="_GZTEUs9rSTjF5WIu7Gr-88" value="" style="rounded=0;whiteSpace=wrap;html=1;fillColor=#d5e8d4;strokeColor=#82b366;snapToPoint=1;" parent="1" vertex="1">
                    <mxGeometry x="630" y="1610" width="30" height="40" as="geometry"/>
                </mxCell>
                <mxCell id="_GZTEUs9rSTjF5WIu7Gr-89" value="" style="endArrow=none;dashed=1;html=1;strokeWidth=5;orthogonalLoop=0;dashPattern=1 2;curved=1;fillColor=#d5e8d4;strokeColor=#82b366;snapToPoint=1;" parent="1" edge="1">
                    <mxGeometry width="50" height="50" relative="1" as="geometry">
                        <mxPoint x="600" y="1630" as="sourcePoint"/>
                        <mxPoint x="620" y="1630" as="targetPoint"/>
                    </mxGeometry>
                </mxCell>
                <mxCell id="_GZTEUs9rSTjF5WIu7Gr-104" value="" style="rounded=0;whiteSpace=wrap;html=1;fillColor=#d5e8d4;strokeColor=#82b366;snapToPoint=1;" parent="1" vertex="1">
                    <mxGeometry x="560" y="1680" width="30" height="40" as="geometry"/>
                </mxCell>
                <mxCell id="_GZTEUs9rSTjF5WIu7Gr-105" value="" style="endArrow=none;dashed=1;html=1;strokeWidth=5;orthogonalLoop=0;dashPattern=1 2;curved=1;fillColor=#d5e8d4;strokeColor=#82b366;snapToPoint=1;" parent="1" edge="1">
                    <mxGeometry width="50" height="50" relative="1" as="geometry">
                        <mxPoint x="600" y="1700" as="sourcePoint"/>
                        <mxPoint x="620" y="1700" as="targetPoint"/>
                    </mxGeometry>
                </mxCell>
                <mxCell id="_GZTEUs9rSTjF5WIu7Gr-106" value="" style="rounded=0;whiteSpace=wrap;html=1;fillColor=#d5e8d4;strokeColor=#82b366;snapToPoint=1;" parent="1" vertex="1">
                    <mxGeometry x="630" y="1680" width="30" height="40" as="geometry"/>
                </mxCell>
                <mxCell id="_GZTEUs9rSTjF5WIu7Gr-109" value="Handler" style="rounded=0;whiteSpace=wrap;html=1;fillColor=#dae8fc;strokeColor=#6c8ebf;snapToPoint=1;fontSize=14;" parent="1" vertex="1">
                    <mxGeometry x="680" y="1680" width="60" height="40" as="geometry"/>
                </mxCell>
                <mxCell id="_GZTEUs9rSTjF5WIu7Gr-111" value="" style="rounded=0;whiteSpace=wrap;html=1;strokeColor=none;fillColor=#F0F0F0;fontColor=#333333;dashed=1;strokeWidth=0;dashPattern=1 2;snapToPoint=1;" parent="1" vertex="1">
                    <mxGeometry x="550" y="1820" width="200" height="60" as="geometry"/>
                </mxCell>
                <mxCell id="_GZTEUs9rSTjF5WIu7Gr-112" value="" style="rounded=0;whiteSpace=wrap;html=1;strokeColor=none;fillColor=#F0F0F0;fontColor=#333333;dashed=1;strokeWidth=0;dashPattern=1 2;snapToPoint=1;" parent="1" vertex="1">
                    <mxGeometry x="550" y="1750" width="200" height="60" as="geometry"/>
                </mxCell>
                <mxCell id="_GZTEUs9rSTjF5WIu7Gr-113" value="" style="rounded=0;whiteSpace=wrap;html=1;fillColor=#d5e8d4;strokeColor=#82b366;snapToPoint=1;" parent="1" vertex="1">
                    <mxGeometry x="560" y="1760" width="30" height="40" as="geometry"/>
                </mxCell>
                <mxCell id="_GZTEUs9rSTjF5WIu7Gr-114" value="Handler" style="rounded=0;whiteSpace=wrap;html=1;fillColor=#dae8fc;strokeColor=#6c8ebf;snapToPoint=1;fontSize=14;" parent="1" vertex="1">
                    <mxGeometry x="680" y="1760" width="60" height="40" as="geometry"/>
                </mxCell>
                <mxCell id="_GZTEUs9rSTjF5WIu7Gr-115" value="" style="rounded=0;whiteSpace=wrap;html=1;fillColor=#d5e8d4;strokeColor=#82b366;snapToPoint=1;" parent="1" vertex="1">
                    <mxGeometry x="630" y="1760" width="30" height="40" as="geometry"/>
                </mxCell>
                <mxCell id="_GZTEUs9rSTjF5WIu7Gr-116" value="" style="endArrow=none;dashed=1;html=1;strokeWidth=5;orthogonalLoop=0;dashPattern=1 2;curved=1;fillColor=#d5e8d4;strokeColor=#82b366;snapToPoint=1;" parent="1" edge="1">
                    <mxGeometry width="50" height="50" relative="1" as="geometry">
                        <mxPoint x="600" y="1780" as="sourcePoint"/>
                        <mxPoint x="620" y="1780" as="targetPoint"/>
                    </mxGeometry>
                </mxCell>
                <mxCell id="_GZTEUs9rSTjF5WIu7Gr-117" value="" style="rounded=0;whiteSpace=wrap;html=1;fillColor=#d5e8d4;strokeColor=#82b366;snapToPoint=1;" parent="1" vertex="1">
                    <mxGeometry x="560" y="1830" width="30" height="40" as="geometry"/>
                </mxCell>
                <mxCell id="_GZTEUs9rSTjF5WIu7Gr-118" value="" style="endArrow=none;dashed=1;html=1;strokeWidth=5;orthogonalLoop=0;dashPattern=1 2;curved=1;fillColor=#d5e8d4;strokeColor=#82b366;snapToPoint=1;" parent="1" edge="1">
                    <mxGeometry width="50" height="50" relative="1" as="geometry">
                        <mxPoint x="600" y="1850" as="sourcePoint"/>
                        <mxPoint x="620" y="1850" as="targetPoint"/>
                    </mxGeometry>
                </mxCell>
                <mxCell id="_GZTEUs9rSTjF5WIu7Gr-119" value="" style="rounded=0;whiteSpace=wrap;html=1;fillColor=#d5e8d4;strokeColor=#82b366;snapToPoint=1;" parent="1" vertex="1">
                    <mxGeometry x="630" y="1830" width="30" height="40" as="geometry"/>
                </mxCell>
                <mxCell id="_GZTEUs9rSTjF5WIu7Gr-120" value="Handler" style="rounded=0;whiteSpace=wrap;html=1;fillColor=#dae8fc;strokeColor=#6c8ebf;snapToPoint=1;fontSize=14;" parent="1" vertex="1">
                    <mxGeometry x="680" y="1830" width="60" height="40" as="geometry"/>
                </mxCell>
                <mxCell id="_GZTEUs9rSTjF5WIu7Gr-123" value="" style="shape=curlyBracket;whiteSpace=wrap;html=1;rounded=1;flipH=1;fontFamily=Helvetica;fontSize=23;strokeColor=#666666;strokeWidth=2;fillColor=#f5f5f5;rotation=90;fontColor=#333333;" parent="1" vertex="1">
                    <mxGeometry x="140" y="1920" width="20" height="60" as="geometry"/>
                </mxCell>
                <mxCell id="_GZTEUs9rSTjF5WIu7Gr-124" value="" style="shape=curlyBracket;whiteSpace=wrap;html=1;rounded=1;flipH=1;fontFamily=Helvetica;fontSize=23;strokeColor=#666666;strokeWidth=2;fillColor=#f5f5f5;rotation=90;fontColor=#333333;" parent="1" vertex="1">
                    <mxGeometry x="460" y="1680" width="20" height="540" as="geometry"/>
                </mxCell>
                <mxCell id="_GZTEUs9rSTjF5WIu7Gr-125" value="Layer4" style="text;html=1;strokeColor=none;fillColor=none;align=center;verticalAlign=middle;whiteSpace=wrap;rounded=0;fontFamily=Helvetica;fontSize=14;" parent="1" vertex="1">
                    <mxGeometry x="120" y="1960" width="60" height="20" as="geometry"/>
                </mxCell>
                <mxCell id="_GZTEUs9rSTjF5WIu7Gr-126" value="Layer7" style="text;html=1;strokeColor=none;fillColor=none;align=center;verticalAlign=middle;whiteSpace=wrap;rounded=0;fontFamily=Helvetica;fontSize=14;" parent="1" vertex="1">
                    <mxGeometry x="440" y="1960" width="60" height="20" as="geometry"/>
                </mxCell>
                <mxCell id="_GZTEUs9rSTjF5WIu7Gr-127" value="Middleware" style="text;html=1;strokeColor=none;fillColor=none;align=center;verticalAlign=middle;whiteSpace=wrap;rounded=0;fontFamily=Helvetica;fontSize=14;" parent="1" vertex="1">
                    <mxGeometry x="380" y="1620" width="80" height="20" as="geometry"/>
                </mxCell>
                <mxCell id="_GZTEUs9rSTjF5WIu7Gr-128" value="" style="shape=curlyBracket;whiteSpace=wrap;html=1;rounded=1;flipH=1;fontFamily=Helvetica;fontSize=23;strokeColor=#666666;strokeWidth=2;fillColor=#f5f5f5;rotation=90;fontColor=#333333;" parent="1" vertex="1">
                    <mxGeometry x="140" y="1870" width="20" height="60" as="geometry"/>
                </mxCell>
                <mxCell id="_GZTEUs9rSTjF5WIu7Gr-129" value="" style="shape=curlyBracket;whiteSpace=wrap;html=1;rounded=1;flipH=1;fontFamily=Helvetica;fontSize=23;strokeColor=#d6b656;strokeWidth=2;fillColor=#fff2cc;rotation=90;" parent="1" vertex="1">
                    <mxGeometry x="220" y="1870" width="20" height="60" as="geometry"/>
                </mxCell>
                <mxCell id="_GZTEUs9rSTjF5WIu7Gr-130" value="" style="shape=curlyBracket;whiteSpace=wrap;html=1;rounded=1;flipH=1;fontFamily=Helvetica;fontSize=23;strokeColor=#b85450;strokeWidth=2;fillColor=#f8cecc;rotation=90;" parent="1" vertex="1">
                    <mxGeometry x="310" y="1860" width="20" height="80" as="geometry"/>
                </mxCell>
                <mxCell id="_GZTEUs9rSTjF5WIu7Gr-131" value="" style="shape=curlyBracket;whiteSpace=wrap;html=1;rounded=1;flipH=1;fontFamily=Helvetica;fontSize=23;strokeColor=#82b366;strokeWidth=2;fillColor=#d5e8d4;rotation=90;" parent="1" vertex="1">
                    <mxGeometry x="510" y="1760" width="20" height="280" as="geometry"/>
                </mxCell>
                <mxCell id="_GZTEUs9rSTjF5WIu7Gr-132" value="" style="shape=curlyBracket;whiteSpace=wrap;html=1;rounded=1;flipH=1;fontFamily=Helvetica;fontSize=23;strokeColor=#6c8ebf;strokeWidth=2;fillColor=#dae8fc;rotation=90;" parent="1" vertex="1">
                    <mxGeometry x="700" y="1870" width="20" height="60" as="geometry"/>
                </mxCell>
                <mxCell id="_GZTEUs9rSTjF5WIu7Gr-133" value="Middleware Layer" style="text;html=1;strokeColor=none;fillColor=none;align=center;verticalAlign=middle;whiteSpace=wrap;rounded=0;fontFamily=Helvetica;fontSize=14;" parent="1" vertex="1">
                    <mxGeometry x="450" y="1910" width="140" height="20" as="geometry"/>
                </mxCell>
                <mxCell id="_GZTEUs9rSTjF5WIu7Gr-134" value="Handler Layer" style="text;html=1;strokeColor=none;fillColor=none;align=center;verticalAlign=middle;whiteSpace=wrap;rounded=0;fontFamily=Helvetica;fontSize=14;" parent="1" vertex="1">
                    <mxGeometry x="660" y="1910" width="100" height="20" as="geometry"/>
                </mxCell>
                <mxCell id="_GZTEUs9rSTjF5WIu7Gr-135" value="Mux. Layer" style="text;html=1;strokeColor=none;fillColor=none;align=center;verticalAlign=middle;whiteSpace=wrap;rounded=0;fontFamily=Helvetica;fontSize=14;" parent="1" vertex="1">
                    <mxGeometry x="270" y="1910" width="100" height="20" as="geometry"/>
                </mxCell>
                <mxCell id="_GZTEUs9rSTjF5WIu7Gr-136" value="vHost Layer" style="text;html=1;strokeColor=none;fillColor=none;align=center;verticalAlign=middle;whiteSpace=wrap;rounded=0;fontFamily=Helvetica;fontSize=14;" parent="1" vertex="1">
                    <mxGeometry x="190" y="1910" width="80" height="20" as="geometry"/>
                </mxCell>
                <mxCell id="_GZTEUs9rSTjF5WIu7Gr-137" value="Transport Layer" style="text;html=1;strokeColor=none;fillColor=none;align=center;verticalAlign=middle;whiteSpace=wrap;rounded=0;fontFamily=Helvetica;fontSize=14;" parent="1" vertex="1">
                    <mxGeometry x="110" y="1910" width="80" height="30" as="geometry"/>
                </mxCell>
                <mxCell id="fRMXqWBaKrDgufQNBcNM-1" value="" style="endArrow=none;dashed=1;html=1;strokeWidth=5;orthogonalLoop=0;dashPattern=1 2;curved=1;fillColor=#d5e8d4;strokeColor=#82b366;snapToPoint=1;" parent="1" edge="1">
                    <mxGeometry width="50" height="50" relative="1" as="geometry">
                        <mxPoint x="470" y="1814.76" as="sourcePoint"/>
                        <mxPoint x="510" y="1814.76" as="targetPoint"/>
                    </mxGeometry>
                </mxCell>
                <mxCell id="fRMXqWBaKrDgufQNBcNM-2" value="" style="rounded=0;whiteSpace=wrap;html=1;fillColor=#d5e8d4;strokeColor=#82b366;snapToPoint=1;" parent="1" vertex="1">
                    <mxGeometry x="510" y="1760" width="30" height="110" as="geometry"/>
                </mxCell>
                <mxCell id="fRMXqWBaKrDgufQNBcNM-3" value="" style="rounded=0;whiteSpace=wrap;html=1;fillColor=#d5e8d4;strokeColor=#82b366;snapToPoint=1;" parent="1" vertex="1">
                    <mxGeometry x="430" y="1760" width="30" height="110" as="geometry"/>
                </mxCell>
                <mxCell id="fRMXqWBaKrDgufQNBcNM-4" value="" style="rounded=0;whiteSpace=wrap;html=1;fillColor=#d5e8d4;strokeColor=#82b366;snapToPoint=1;" parent="1" vertex="1">
                    <mxGeometry x="380" y="1760" width="30" height="110" as="geometry"/>
                </mxCell>
            </root>
        </mxGraphModel>
    </diagram>
</mxfile>